# AST/ASF file generated using VICON BodyLanguage
# -----------------------------------------------
:version 1.10
:name VICON
:units
  mass 1.0
  length 0.45
  angle deg
:documentation
   .ast/.asf automatically generated from VICON data using
   VICON BodyBuilder and BodyLanguage model FoxedUp or BRILLIANT.MOD
:root
   order TX TY TZ RX RY RZ
   axis XYZ
   position 0 0 0  
   orientation 0 0 0 
:bonedata
  begin
     id 1 
     name lhipjoint
     direction 0.624716 -0.669793 0.401383 
     length 2.38238 
     axis 0 0 0  XYZ
  end
  begin
     id 2 
     name lfemur
     direction 0.34202 -0.939693 0  
     length 6.4574  
     axis 0 0 20  XYZ
    dof rx ry rz
    limits (-160.0 20.0)
           (-70.0 70.0)
           (-60.0 70.0)
  end
  begin
     id 3 
     name ltibia
     direction 0.34202 -0.939693 0   
     length 7.68739   
     axis 0 0 20   XYZ
    dof rx
    limits (-10.0 170.0)
  end
  begin
     id 4 
     name lfoot
     direction 0.0681309 -0.187188 0.979959   
     length 2.46615   
     axis -90 7.62852e-016 20   XYZ
    dof rx rz
    limits (-45.0 90.0)
           (-70.0 20.0)
  end
  begin
     id 5 
     name ltoes
     direction 1.53566e-011 -4.21819e-011 1   
     length 1.2376   
     axis -90 7.62852e-016 20   XYZ
    dof rx
    limits (-90.0 20.0)
  end
  begin
     id 6 
     name rhipjoint
     direction -0.644473 -0.655875 0.393043   
     length 2.43293  
     axis 0 0 0  XYZ 
  end
  begin
     id 7 
     name rfemur
     direction -0.34202 -0.939693 0   
     length 6.7025   
     axis 0 0 -20   XYZ
    dof rx ry rz
    limits (-160.0 20.0)
           (-70.0 70.0)
           (-70.0 60.0)
  end
  begin
     id 8 
     name rtibia
     direction -0.34202 -0.939693 0   
     length 7.80547   
     axis 0 0 -20   XYZ
    dof rx
    limits (-10.0 170.0)
 end
 begin
     id 9 
     name rfoot
     direction -0.0756734 -0.207911 0.975216   
     length 2.40315  
     axis -90 -7.62852e-016 -20   XYZ
    dof rx rz
    limits (-45.0 90.0)
           (-20.0 70.0)
  end
  begin
     id 10 
     name rtoes
     direction -1.5353e-011 -4.21879e-011 1   
     length 1.20477   
     axis -90 -7.62852e-016 -20   XYZ
    dof rx
    limits (-90.0 20.0)
  end
  begin
     id 11 
     name lowerback
     direction 0.0160353 0.987463 -0.157037   
     length 2.18572   
     axis 0 0 0   XYZ
    dof rx ry rz
    limits (-20.0 45.0)
           (-30.0 30.0)
           (-30.0 30.0)
  end
  begin
     id 12 
     name upperback
     direction -0.00499661 0.999756 0.0215076   
     length 2.18016   
     axis 0 0 0   XYZ
    dof rx ry rz
    limits (-20.0 45.0)
           (-30.0 30.0)
           (-30.0 30.0)
  end
  begin
     id 13 
     name thorax
     direction -0.00921346 0.995333 0.0960619   
     length 2.24923   
     axis 0 0 0   XYZ
    dof rx ry rz
    limits (-20.0 45.0)
           (-30.0 30.0)
           (-30.0 30.0)
  end
  begin
     id 14 
     name lowerneck
     direction 0.0274184 0.991181 0.12965   
     length 1.70911   
     axis 0 0 0   XYZ
    dof rx ry rz
    limits (-20.0 45.0)
           (-30.0 30.0)
           (-30.0 30.0)
  end
  begin
     id 15 
     name upperneck
     direction 0.0015627 0.999959 -0.00893559   
     length 1.69312   
     axis 0 0 0   XYZ
    dof rx ry rz
    limits (-20.0 45.0)
           (-30.0 30.0)
           (-30.0 30.0)
  end
  begin
     id 16
     name head
     direction -0.00230242 0.999856 -0.0168327  
     length 1.80241  
     axis 0 0 0   XYZ
    dof rx ry rz
    limits (-20.0 45.0)
           (-30.0 30.0)
           (-30.0 30.0)
  end
  begin
     id 17 
     name lclavicle
     direction 0.955523 0.290741 -0.0494489  
     length 3.84275  
     axis 0 0 0   XYZ
    dof ry rz
    limits (-20.0 10.0)
           (0.0 20.0)
  end
  begin
     id 18 
     name lhumerus
     direction 1 -4.48967e-011 -3.18382e-028   
     length 5.17714   
     axis 180 -30 -90   XYZ
    dof rx ry rz
    limits (-60.0 90.0)
           (-90.0 90.0)
           (-90.0 90.0)
  end
  begin
     id 19
     name lradius
     direction 1 -4.48968e-011 -2.22911e-027   
     length 3.43679   
     axis 180 -30 -90   XYZ
    dof rx
    limits (-10.0 170.0)
  end
  begin
     id 20
     name lwrist
     direction 1 -4.48951e-011 -6.32245e-027   
     length 1.7184   
     axis 3.57107e-015 90 90   XYZ
    dof ry
    limits (-180.0 0.0)
 end
  begin
     id 21 
     name lhand
     direction 1 -4.48924e-011 -1.26431e-026   
     length 0.573117   
     axis 8.06912e-015 90 90   XYZ
    dof rx rz
    limits (-90.0 90.0)
           (-45.0 45.0)
  end
  begin
     id 22 
     name lfingers
     direction 1 -4.49001e-011 -2.52965e-026   
     length 0.462062   
     axis 1.61381e-014 90 90   XYZ
    dof rx
    limits (0.0 90.0)
  end
  begin
     id 23
     name lthumb
     direction 0.707107 -6.35008e-011 0.707107   
     length 0.663431   
     axis -90 45 -1.62303e-014   XYZ
    dof rx rz
    limits (-45.0 45.0)
           (-45.0 45.0)
  end
  begin
     id 24 
     name rclavicle
     direction -0.963917 0.256881 -0.0698287   
     length 3.73057  
     axis 0 0 0   XYZ 
    dof ry rz
    limits (-10.0 20.0)
           (-20.0 0.0)
  end
  begin
     id 25 
     name rhumerus
     direction -1 -4.48962e-011 -2.73982e-027  
     length 5.23908   
     axis 180 30 90   XYZ
    dof rx ry rz
    limits (-90.0 60.0)
           (-90.0 90.0)
           (-90.0 90.0)
  end
  begin
     id 26 
     name rradius
     direction -1 -4.48968e-011 -4.33218e-027   
     length 3.46485   
     axis 180 30 90   XYZ
    dof rx
    limits (-10.0 170.0)
  end
  begin
     id 27 
     name rwrist
     direction -1 -4.48989e-011 -6.32372e-027   
     length 1.73243   
     axis 3.57107e-015 -90 -90   XYZ
    dof ry
    limits (-180.0 0.0)
  end
  begin
     id 28
     name rhand
     direction -1 -4.48948e-011 -1.26448e-026   
     length 0.608752   
     axis 8.06912e-015 -90 -90   XYZ
    dof rx rz
    limits (-90.0 90.0)
           (-45.0 45.0)
  end
  begin
     id 29
     name rfingers
     direction -1 -4.48962e-011 -2.52913e-026   
     length 0.490792   
     axis 1.61381e-014 -90 -90   XYZ
    dof rx
    limits (0.0 90.0)
  end
  begin
     id 30
     name rthumb
     direction -0.707107 -6.34878e-011 0.707107   
     length 0.704682   
     axis -90 -45 1.62303e-014   XYZ
    dof rx rz
    limits (-45.0 45.0)
           (-45.0 45.0)
  end
:hierarchy
  begin
    root lhipjoint rhipjoint lowerback
    lhipjoint lfemur
    lfemur ltibia
    ltibia lfoot
    lfoot ltoes
    rhipjoint rfemur
    rfemur rtibia
    rtibia rfoot
    rfoot rtoes
    lowerback upperback
    upperback thorax
    thorax lowerneck lclavicle rclavicle
    lowerneck upperneck
    upperneck head
    lclavicle lhumerus
    lhumerus lradius
    lradius lwrist
    lwrist lhand lthumb
    lhand lfingers
    rclavicle rhumerus
    rhumerus rradius
    rradius rwrist
    rwrist rhand rthumb
    rhand rfingers
  end

#!OML:ASF G:\JayActor3\Patient Classification 1\Patient 1\Session 6\male.ASF
:FULLY-SPECIFIED
:DEGREES
812
root 0.553738 16.4711 -2.74657 141.674 -82.9161 -144.785
lowerback 3.85518 -2.92753 -2.29513
upperback -5.13572 -4.19503 -0.230625
thorax -7.38496 -1.97807 1.46722
lowerneck 6.66194 -7.42443 -0.620349
upperneck -5.55242 -10.1582 -2.25759
head -3.02999 -4.95011 -0.143931
rclavicle -3.97569e-015 -7.15625e-015
rhumerus -47.6372 18.7514 -83.8626
rradius 35.0719
rwrist 2.57196
rhand -9.83397 -3.16158
rfingers 7.12502
rthumb 16.1435 -32.5093
lclavicle -3.97569e-015 -7.15625e-015
lhumerus -47.6107 -24.5141 87.4086
lradius 36.6855
lwrist 30.0934
lhand -10.2723 8.81011
lfingers 7.12502
lthumb 15.7214 38.1915
rfemur -5.45763 7.5331 20.651
rtibia 31.4354
rfoot -22.5197 -13.5734
rtoes -0.0993434
lfemur 6.90258 7.27271 -12.6915
ltibia 15.852
lfoot -19.211 19.9226
ltoes 0.055237
813
root 0.549403 16.4711 -2.74854 140.17 -83.195 -143.289
lowerback 3.83949 -2.92129 -2.30207
upperback -5.12923 -4.18631 -0.234307
thorax -7.36899 -1.97371 1.46515
lowerneck 6.64408 -7.43275 -0.625208
upperneck -5.51022 -10.1678 -2.25686
head -3.01189 -4.95561 -0.144333
rclavicle -6.36111e-015 2.38542e-015
rhumerus -47.6166 18.7714 -83.8912
rradius 35.1156
rwrist 2.52652
rhand -9.87973 -3.16207
rfingers 7.12502
rthumb 16.0995 -32.5133
lclavicle -6.36111e-015 2.38542e-015
lhumerus -47.6076 -24.5079 87.3999
lradius 36.6372
lwrist 30.0916
lhand -10.2082 8.82326
lfingers 7.12502
lthumb 15.7832 38.1998
rfemur -5.35197 7.41517 20.65
rtibia 31.405
rfoot -22.6414 -13.7258
rtoes -0.0921222
lfemur 6.83637 7.19848 -12.6823
ltibia 15.8958
lfoot -19.1243 19.7229
ltoes -0.0859417
814
root 0.545247 16.4711 -2.75066 138.564 -83.4623 -141.687
lowerback 3.82525 -2.91407 -2.30387
upperback -5.12727 -4.17626 -0.238683
thorax -7.35918 -1.96891 1.45965
lowerneck 6.63866 -7.44266 -0.633354
upperneck -5.46913 -10.1795 -2.24976
head -2.99596 -4.96215 -0.141527
rclavicle -2.26615e-014 -1.66979e-014
rhumerus -47.601 18.7899 -83.9271
rradius 35.1594
rwrist 2.47819
rhand -9.91877 -3.16582
rfingers 7.12502
rthumb 16.0619 -32.5201
lclavicle -2.26615e-014 -1.66979e-014
lhumerus -47.6202 -24.4966 87.3904
lradius 36.5962
lwrist 30.0856
lhand -10.1523 8.83923
lfingers 7.12502
lthumb 15.837 38.2115
rfemur -5.25154 7.31191 20.6542
rtibia 31.3749
rfoot -22.7671 -13.8829
rtoes -0.0685718
lfemur 6.76671 7.11207 -12.6754
ltibia 15.9402
lfoot -19.0468 19.5399
ltoes -0.213002
815
root 0.541183 16.4712 -2.75292 136.852 -83.7181 -139.978
lowerback 3.80998 -2.90648 -2.30352
upperback -5.1267 -4.16558 -0.242528
thorax -7.35038 -1.9639 1.45345
lowerneck 6.63917 -7.45284 -0.641663
upperneck -5.42775 -10.1915 -2.24136
head -2.98096 -4.96885 -0.13802
rclavicle 2.32578e-014 7.95139e-016
rhumerus -47.5881 18.8061 -83.9664
rradius 35.2061
rwrist 2.4301
rhand -9.94364 -3.17613
rfingers 7.12502
rthumb 16.0379 -32.5323
lclavicle 2.32578e-014 7.95139e-016
lhumerus -47.6406 -24.4852 87.3822
lradius 36.5596
lwrist 30.0803
lhand -10.1097 8.86016
lfingers 7.12502
lthumb 15.878 38.2292
rfemur -5.15421 7.22189 20.6627
rtibia 31.3446
rfoot -22.8969 -14.0428
rtoes -0.0348377
lfemur 6.6939 7.01831 -12.6699
ltibia 15.9878
lfoot -18.9769 19.3706
ltoes -0.336333
816
root 0.537299 16.4713 -2.75532 135.032 -83.9574 -138.16
lowerback 3.7937 -2.89828 -2.29947
upperback -5.12572 -4.15357 -0.243515
thorax -7.34064 -1.95836 1.44798
lowerneck 6.64265 -7.46299 -0.64961
upperneck -5.38899 -10.2038 -2.23517
head -2.96758 -4.97554 -0.135063
rclavicle -2.18663e-015 -1.51076e-014
rhumerus -47.5756 18.8252 -84.0085
rradius 35.2585
rwrist 2.38089
rhand -9.96707 -3.19205
rfingers 7.12502
rthumb 16.0154 -32.5501
lclavicle -2.18663e-015 -1.51076e-014
lhumerus -47.6654 -24.4756 87.3793
lradius 36.5302
lwrist 30.0884
lhand -10.0752 8.89506
lfingers 7.12502
lthumb 15.9113 38.2614
rfemur -5.06028 7.145 20.6782
rtibia 31.315
rfoot -23.0268 -14.2026
rtoes 0.0121362
lfemur 6.61929 6.92607 -12.6602
ltibia 16.0383
lfoot -18.9086 19.2107
ltoes -0.468685
817
root 0.533479 16.4712 -2.75781 133.122 -84.1823 -136.253
lowerback 3.77737 -2.88889 -2.29507
upperback -5.12477 -4.13978 -0.242374
thorax -7.33083 -1.9519 1.44438
lowerneck 6.65841 -7.47409 -0.657519
upperneck -5.36065 -10.218 -2.22991
head -2.96015 -4.98285 -0.131498
rclavicle -5.34731e-014 -2.06736e-014
rhumerus -47.5663 18.8409 -84.0491
rradius 35.3177
rwrist 2.3433
rhand -9.97894 -3.21142
rfingers 7.12502
rthumb 16.0039 -32.5704
lclavicle -5.34731e-014 -2.06736e-014
lhumerus -47.6928 -24.469 87.3814
lradius 36.5051
lwrist 30.0995
lhand -10.0321 8.95183
lfingers 7.12502
lthumb 15.9527 38.3149
rfemur -4.96793 7.07747 20.6967
rtibia 31.2876
rfoot -23.1583 -14.3609
rtoes 0.0590915
lfemur 6.54704 6.8427 -12.647
ltibia 16.0887
lfoot -18.8406 19.0503
ltoes -0.602242
818
root 0.529669 16.4711 -2.76034 131.121 -84.3928 -134.254
lowerback 3.75674 -2.8794 -2.28884
upperback -5.12264 -4.1254 -0.239187
thorax -7.31723 -1.94527 1.44153
lowerneck 6.67402 -7.48485 -0.662251
upperneck -5.33847 -10.232 -2.22847
head -2.95522 -4.98991 -0.129501
rclavicle 2.84262e-014 -8.74653e-015
rhumerus -47.5576 18.8662 -84.0963
rradius 35.3814
rwrist 2.3084
rhand -10.0018 -3.22371
rfingers 7.12502
rthumb 15.9819 -32.5844
lclavicle 2.84262e-014 -8.74653e-015
lhumerus -47.7172 -24.4668 87.3877
lradius 36.4839
lwrist 30.1281
lhand -9.98354 9.03621
lfingers 7.12502
lthumb 15.9995 38.3955
rfemur -4.87992 7.01561 20.717
rtibia 31.2628
rfoot -23.2879 -14.516
rtoes 0.107863
lfemur 6.4751 6.77315 -12.6289
ltibia 16.1388
lfoot -18.7725 18.8819
ltoes -0.730827
819
root 0.525784 16.4708 -2.76274 129.054 -84.598 -132.192
lowerback 3.73337 -2.87052 -2.28718
upperback -5.11794 -4.11205 -0.236918
thorax -7.29901 -1.939 1.44009
lowerneck 6.69023 -7.49543 -0.666347
upperneck -5.32318 -10.2461 -2.22891
head -2.95293 -4.99686 -0.127982
rclavicle 2.46493e-014 1.43125e-014
rhumerus -47.5525 18.9016 -84.1486
rradius 35.4544
rwrist 2.27393
rhand -10.0256 -3.22975
rfingers 7.12502
rthumb 15.959 -32.5923
lclavicle 2.46493e-014 1.43125e-014
lhumerus -47.7382 -24.4697 87.3985
lradius 36.4629
lwrist 30.167
lhand -9.92551 9.13833
lfingers 7.12502
lthumb 16.0554 38.4931
rfemur -4.79232 6.94807 20.7273
rtibia 31.2408
rfoot -23.4137 -14.6612
rtoes 0.146877
lfemur 6.40803 6.72061 -12.6139
ltibia 16.1868
lfoot -18.702 18.6981
ltoes -0.861193
820
root 0.522031 16.4704 -2.765 126.88 -84.7876 -130.02
lowerback 3.70678 -2.86154 -2.27944
upperback -5.11251 -4.09785 -0.23251
thorax -7.27841 -1.93263 1.43723
lowerneck 6.69994 -7.50428 -0.669963
upperneck -5.30991 -10.2579 -2.23058
head -2.95019 -5.00272 -0.127272
rclavicle -2.60408e-014 7.95139e-015
rhumerus -47.5479 18.9412 -84.2019
rradius 35.5351
rwrist 2.25339
rhand -10.0414 -3.22078
rfingers 7.12502
rthumb 15.9438 -32.5845
lclavicle -2.60408e-014 7.95139e-015
lhumerus -47.7512 -24.4699 87.4078
lradius 36.4335
lwrist 30.193
lhand -9.85657 9.24252
lfingers 7.12502
lthumb 16.1218 38.592
rfemur -4.70987 6.88084 20.7395
rtibia 31.221
rfoot -23.536 -14.7989
rtoes 0.183803
lfemur 6.34205 6.68034 -12.5925
ltibia 16.2319
lfoot -18.6334 18.5034
ltoes -0.978875
821
root 0.518384 16.4699 -2.76721 124.596 -84.9656 -127.737
lowerback 3.68041 -2.85237 -2.26909
upperback -5.10828 -4.08327 -0.227662
thorax -7.25937 -1.92618 1.43341
lowerneck 6.70325 -7.51168 -0.671979
upperneck -5.29274 -10.2676 -2.23407
head -2.94511 -5.00759 -0.127883
rclavicle -5.08889e-014 -3.97569e-015
rhumerus -47.5487 18.9989 -84.2679
rradius 35.6203
rwrist 2.22121
rhand -10.0532 -3.19927
rfingers 7.12502
rthumb 15.9324 -32.564
lclavicle -5.08889e-014 -3.97569e-015
lhumerus -47.7651 -24.4728 87.4192
lradius 36.4019
lwrist 30.2108
lhand -9.78714 9.35457
lfingers 7.12502
lthumb 16.1886 38.6986
rfemur -4.63226 6.81128 20.7508
rtibia 31.2027
rfoot -23.6534 -14.9333
rtoes 0.203791
lfemur 6.27708 6.65081 -12.5684
ltibia 16.2726
lfoot -18.5616 18.3006
ltoes -1.09481
822
root 0.514615 16.4694 -2.76971 122.217 -85.1307 -125.359
lowerback 3.65409 -2.84181 -2.25881
upperback -5.10488 -4.06688 -0.222565
thorax -7.24131 -1.91881 1.42976
lowerneck 6.70665 -7.51805 -0.674217
upperneck -5.27533 -10.2759 -2.23722
head -2.93992 -5.01179 -0.128419
rclavicle 2.80286e-014 0
rhumerus -47.5552 19.0555 -84.3353
rradius 35.7172
rwrist 2.19521
rhand -10.0359 -3.16576
rfingers 7.12502
rthumb 15.9491 -32.5291
lclavicle 2.80286e-014 0
lhumerus -47.7814 -24.4756 87.4308
lradius 36.3668
lwrist 30.2134
lhand -9.71854 9.47407
lfingers 7.12502
lthumb 16.2547 38.8127
rfemur -4.55559 6.74623 20.7639
rtibia 31.1842
rfoot -23.7708 -15.0656
rtoes 0.227718
lfemur 6.21428 6.63014 -12.5412
ltibia 16.312
lfoot -18.491 18.0911
ltoes -1.20735
823
root 0.510745 16.4689 -2.77212 119.706 -85.2931 -122.848
lowerback 3.62536 -2.83224 -2.25137
upperback -5.10034 -4.05207 -0.219981
thorax -7.22056 -1.9122 1.42505
lowerneck 6.70868 -7.524 -0.677605
upperneck -5.25499 -10.2836 -2.24016
head -2.93339 -5.01573 -0.128869
rclavicle 1.41137e-014 1.35174e-014
rhumerus -47.5633 19.114 -84.4042
rradius 35.8247
rwrist 2.16113
rhand -10.0012 -3.13527
rfingers 7.12502
rthumb 15.9825 -32.4959
lclavicle 1.41137e-014 1.35174e-014
lhumerus -47.7934 -24.4786 87.4401
lradius 36.3276
lwrist 30.2014
lhand -9.65136 9.60644
lfingers 7.12502
lthumb 16.3194 38.9398
rfemur -4.4791 6.66653 20.7664
rtibia 31.1656
rfoot -23.8847 -15.1873
rtoes 0.248131
lfemur 6.15316 6.61483 -12.5203
ltibia 16.3481
lfoot -18.4182 17.8776
ltoes -1.3325
824
root 0.506987 16.4684 -2.77458 117.051 -85.4414 -120.191
lowerback 3.59948 -2.82284 -2.23987
upperback -5.09963 -4.03742 -0.216044
thorax -7.20575 -1.90574 1.41983
lowerneck 6.70899 -7.52652 -0.679984
upperneck -5.22984 -10.2865 -2.24395
head -2.92497 -5.01738 -0.130181
rclavicle -2.82274e-014 -1.03368e-014
rhumerus -47.5792 19.1755 -84.476
rradius 35.943
rwrist 2.11425
rhand -9.95687 -3.11386
rfingers 7.12502
rthumb 16.0252 -32.4711
lclavicle -2.82274e-014 -1.03368e-014
lhumerus -47.8098 -24.4828 87.4537
lradius 36.2895
lwrist 30.1925
lhand -9.59149 9.7548
lfingers 7.12502
lthumb 16.377 39.0834
rfemur -4.40723 6.58383 20.771
rtibia 31.1472
rfoot -23.995 -15.3065
rtoes 0.261954
lfemur 6.09113 6.60228 -12.4966
ltibia 16.3797
lfoot -18.3418 17.6663
ltoes -1.46762
825
root 0.50337 16.4679 -2.77697 114.265 -85.586 -117.402
lowerback 3.57805 -2.81481 -2.23332
upperback -5.10236 -4.02539 -0.21389
thorax -7.19691 -1.90027 1.41615
lowerneck 6.71167 -7.52576 -0.680985
upperneck -5.20353 -10.2848 -2.24729
head -2.91661 -5.01679 -0.131713
rclavicle 4.03533e-014 3.18055e-015
rhumerus -47.6013 19.2343 -84.5467
rradius 36.0713
rwrist 2.06147
rhand -9.92655 -3.09688
rfingers 7.12502
rthumb 16.0544 -32.4518
lclavicle 4.03533e-014 3.18055e-015
lhumerus -47.8298 -24.4844 87.4684
lradius 36.2501
lwrist 30.1755
lhand -9.53742 9.881
lfingers 7.12502
lthumb 16.4291 39.2053
rfemur -4.33774 6.49131 20.7649
rtibia 31.1305
rfoot -24.1038 -15.4179
rtoes 0.272468
lfemur 6.03126 6.58917 -12.4822
ltibia 16.4046
lfoot -18.2638 17.4564
ltoes -1.59854
826
root 0.499705 16.4673 -2.77928 111.324 -85.7269 -114.457
lowerback 3.55551 -2.80914 -2.23239
upperback -5.10526 -4.01706 -0.213836
thorax -7.18729 -1.89641 1.41368
lowerneck 6.70398 -7.52014 -0.673084
upperneck -5.17291 -10.2759 -2.25633
head -2.90567 -5.01277 -0.137376
rclavicle 8.54774e-015 -5.56597e-015
rhumerus -47.6237 19.2913 -84.6174
rradius 36.2045
rwrist 1.99641
rhand -9.93755 -3.07898
rfingers 7.12502
rthumb 16.0438 -32.4347
lclavicle 8.54774e-015 -5.56597e-015
lhumerus -47.8474 -24.4828 87.4819
lradius 36.2094
lwrist 30.1567
lhand -9.52985 9.93354
lfingers 7.12502
lthumb 16.4363 39.2572
rfemur -4.26806 6.38883 20.7478
rtibia 31.1149
rfoot -24.2116 -15.5201
rtoes 0.281767
lfemur 5.97405 6.57619 -12.4771
ltibia 16.4253
lfoot -18.1875 17.2452
ltoes -1.71628
